<?xml version="1.0" encoding="UTF-8"?><svg id="b" xmlns="http://www.w3.org/2000/svg" xmlns:xlink="http://www.w3.org/1999/xlink" viewBox="0 0 194.4 180"><defs><style>.i{fill:url(#d);}.j,.k{fill:#fff;}.k{filter:url(#g);font-family:SegoeUI-Semibold, 'Segoe UI';font-size:42px;font-weight:700;}.l{filter:url(#e);}</style><linearGradient id="d" x1="176.72" y1="6.13" x2="15.53" y2="162.69" gradientTransform="matrix(1, 0, 0, 1, 0, 0)" gradientUnits="userSpaceOnUse"><stop offset=".14" stop-color="#2773ba"/><stop offset=".34" stop-color="#2a75bb"/><stop offset=".49" stop-color="#337cbf"/><stop offset=".63" stop-color="#4489c7"/><stop offset=".76" stop-color="#5b9bd1"/><stop offset=".88" stop-color="#79b1df"/><stop offset="1" stop-color="#9ecdef"/><stop offset="1" stop-color="#9fcef0"/></linearGradient><filter id="e" filterUnits="userSpaceOnUse"><feOffset dx="7" dy="7"/><feGaussianBlur result="f" stdDeviation="5"/><feFlood flood-color="#000" flood-opacity=".75"/><feComposite in2="f" operator="in"/><feComposite in="SourceGraphic"/></filter><filter id="g" filterUnits="userSpaceOnUse"><feOffset dx="7" dy="7"/><feGaussianBlur result="h" stdDeviation="5"/><feFlood flood-color="#000" flood-opacity=".75"/><feComposite in2="h" operator="in"/><feComposite in="SourceGraphic"/></filter></defs><g id="c"><g><rect class="i" x="8.37" width="164" height="180"/><g class="l"><path class="j" d="M62.7,103.21v31.35c0,6.08,4.93,11.01,11.01,11.01h38.97c6.08,0,11.01-4.93,11.01-11.01v-31.35H62.7Zm46.6,22.03c2.34,0,4.24,1.9,4.24,4.24s-1.9,4.24-4.24,4.24-4.24-1.9-4.24-4.24,1.9-4.24,4.24-4.24Zm-16.1,0c2.34,0,4.24,1.9,4.24,4.24s-1.9,4.24-4.24,4.24-4.24-1.9-4.24-4.24,1.9-4.24,4.24-4.24Zm16.1-15.25c2.34,0,4.24,1.9,4.24,4.24s-1.9,4.24-4.24,4.24-4.24-1.9-4.24-4.24,1.9-4.24,4.24-4.24Zm-16.1,0c2.34,0,4.24,1.9,4.24,4.24s-1.9,4.24-4.24,4.24-4.24-1.9-4.24-4.24,1.9-4.24,4.24-4.24Zm-16.1,0c2.34,0,4.24,1.9,4.24,4.24s-1.9,4.24-4.24,4.24-4.24-1.9-4.24-4.24,1.9-4.24,4.24-4.24Zm-3.39-25.42c-6.08,0-11.01,4.93-11.01,11.01v2.54h61v-2.54c0-6.08-4.93-11.01-11.01-11.01h-38.98Z"/></g><text class="k" transform="translate(69.68 61.48)"><tspan x="0" y="0">14</tspan></text></g></g></svg>