<?xml version="1.0" encoding="UTF-8"?><svg id="b" xmlns="http://www.w3.org/2000/svg" xmlns:xlink="http://www.w3.org/1999/xlink" viewBox="0 0 194.64 180"><defs><style>.i{fill:url(#d);}.j,.k{fill:#fff;}.k{filter:url(#g);font-family:SegoeUI-Semibold, 'Segoe UI';font-size:42px;font-weight:700;}.l{filter:url(#e);}</style><linearGradient id="d" x1="202.34" y1="41.21" x2="6.79" y2="126.52" gradientTransform="matrix(1, 0, 0, 1, 0, 0)" gradientUnits="userSpaceOnUse"><stop offset=".17" stop-color="#03787c"/><stop offset=".34" stop-color="#06797e"/><stop offset=".48" stop-color="#0f7f85"/><stop offset=".59" stop-color="#208891"/><stop offset=".71" stop-color="#3795a3"/><stop offset=".81" stop-color="#56a5b9"/><stop offset=".92" stop-color="#7ab9d4"/><stop offset="1" stop-color="#9fcef0"/></linearGradient><filter id="e" filterUnits="userSpaceOnUse"><feOffset dx="7" dy="7"/><feGaussianBlur result="f" stdDeviation="5"/><feFlood flood-color="#000" flood-opacity=".75"/><feComposite in2="f" operator="in"/><feComposite in="SourceGraphic"/></filter><filter id="g" filterUnits="userSpaceOnUse"><feOffset dx="7" dy="7"/><feGaussianBlur result="h" stdDeviation="5"/><feFlood flood-color="#000" flood-opacity=".75"/><feComposite in2="h" operator="in"/><feComposite in="SourceGraphic"/></filter></defs><g id="c"><g><rect class="i" x="8.5" width="164" height="180"/><g class="l"><path class="j" d="M123.83,93.04c0-5.15-4.17-9.32-9.32-9.32h-42.36c-5.15,0-9.32,4.17-9.32,9.32v42.36c0,5.15,4.17,9.32,9.32,9.32h42.36c5.15,0,9.32-4.17,9.32-9.32v-42.36Zm-22.87,19.48c1.4,0,2.54,1.14,2.54,2.54,0,1.29-.96,2.35-2.2,2.52l-.35,.02h-25.42c-1.4,0-2.54-1.14-2.54-2.54,0-1.29,.96-2.35,2.2-2.52l.35-.02h25.42Zm-25.42,13.56h35.58c1.4,0,2.54,1.14,2.54,2.54,0,1.29-.96,2.35-2.2,2.52l-.35,.02h-35.58c-1.4,0-2.54-1.14-2.54-2.54,0-1.29,.96-2.35,2.2-2.52l.35-.02Zm35.58-27.11c1.4,0,2.54,1.14,2.54,2.54,0,1.29-.96,2.35-2.2,2.52l-.35,.02h-35.58c-1.4,0-2.54-1.14-2.54-2.54,0-1.29,.96-2.35,2.2-2.52l.35-.02h35.58Z"/></g><text class="k" transform="translate(67.04 61.48)"><tspan x="0" y="0">23</tspan></text></g></g></svg>