<?xml version="1.0" encoding="UTF-8"?>
<svg id="b"
    xmlns="http://www.w3.org/2000/svg"
    xmlns:xlink="http://www.w3.org/1999/xlink" viewBox="0 0 186.85 88.52">
    <defs>
        <style>.i{fill:url(#d);}.j{filter:url(#g);font-family:SegoeUI-Semibold, 'Segoe UI';font-size:33.18px;font-weight:700;}.j,.k{fill:#fff;}.l{filter:url(#e);}</style>
        <linearGradient id="d" x1="1.37" y1="82.93" x2="185.48" y2="-2.93" gradientTransform="matrix(1, 0, 0, 1, 0, 0)" gradientUnits="userSpaceOnUse">
            <stop offset="0" stop-color="#2773ba"/>
            <stop offset=".23" stop-color="#2a75bb"/>
            <stop offset=".41" stop-color="#337cbf"/>
            <stop offset=".57" stop-color="#4489c7"/>
            <stop offset=".72" stop-color="#5b9bd1"/>
            <stop offset=".86" stop-color="#79b1df"/>
            <stop offset="1" stop-color="#9ecdef"/>
            <stop offset="1" stop-color="#9fcef0"/>
        </linearGradient>
        <filter id="e" filterUnits="userSpaceOnUse">
            <feOffset dx="7" dy="7"/>
            <feGaussianBlur result="f" stdDeviation="5"/>
            <feFlood flood-color="#000" flood-opacity=".75"/>
            <feComposite in2="f" operator="in"/>
            <feComposite in="SourceGraphic"/>
        </filter>
        <filter id="g" filterUnits="userSpaceOnUse">
            <feOffset dx="7" dy="7"/>
            <feGaussianBlur result="h" stdDeviation="5"/>
            <feFlood flood-color="#000" flood-opacity=".75"/>
            <feComposite in2="h" operator="in"/>
            <feComposite in="SourceGraphic"/>
        </filter>
    </defs>
    <g id="c">
        <g>
            <rect class="i" width="186.85" height="80"/>
            <g>
                <g class="l">
                    <path class="k" d="M134.77,29.52c1.8,1.15,3,3.18,3,5.48v12c0,5.8-4.7,10.5-10.5,10.5h-18c-2.3,0-4.32-1.2-5.48-3h23.48c4.14,0,7.5-3.36,7.5-7.5V29.52Zm-2,1.2v15.28c0,3.47-2.71,6.3-6.13,6.49h-23.37c-3.47,.01-6.3-2.7-6.49-6.12v-15.65l17.29,9.11c.44,.23,.96,.23,1.4,0l17.3-9.11h0Zm-29.5-8.22h23c3.05,0,5.61,2.1,6.31,4.93l-17.81,9.37-17.81-9.37c.67-2.71,3.05-4.76,5.93-4.92h.38Z"/>
                </g>
                <text class="j" transform="translate(49.57 52.28)">
                    <tspan x="0" y="0">14</tspan>
                </text>
            </g>
        </g>
    </g>
</svg>