<?xml version="1.0" encoding="UTF-8"?><svg id="b" xmlns="http://www.w3.org/2000/svg" xmlns:xlink="http://www.w3.org/1999/xlink" viewBox="0 0 194.64 180"><defs><style>.i{fill:url(#d);}.j,.k{fill:#fff;}.k{filter:url(#g);font-family:SegoeUI-Semibold, 'Segoe UI';font-size:42px;font-weight:700;}.l{filter:url(#e);}</style><linearGradient id="d" x1="-11.32" y1="137.48" x2="192.33" y2="42.52" gradientTransform="matrix(1, 0, 0, 1, 0, 0)" gradientUnits="userSpaceOnUse"><stop offset="0" stop-color="#2773ba"/><stop offset=".23" stop-color="#2a75bb"/><stop offset=".41" stop-color="#337cbf"/><stop offset=".57" stop-color="#4489c7"/><stop offset=".72" stop-color="#5b9bd1"/><stop offset=".86" stop-color="#79b1df"/><stop offset="1" stop-color="#9ecdef"/><stop offset="1" stop-color="#9fcef0"/></linearGradient><filter id="e" filterUnits="userSpaceOnUse"><feOffset dx="7" dy="7"/><feGaussianBlur result="f" stdDeviation="5"/><feFlood flood-color="#000" flood-opacity=".75"/><feComposite in2="f" operator="in"/><feComposite in="SourceGraphic"/></filter><filter id="g" filterUnits="userSpaceOnUse"><feOffset dx="7" dy="7"/><feGaussianBlur result="h" stdDeviation="5"/><feFlood flood-color="#000" flood-opacity=".75"/><feComposite in2="h" operator="in"/><feComposite in="SourceGraphic"/></filter></defs><g id="c"><g><rect class="i" x="8.5" width="164" height="180"/><g class="l"><path class="j" d="M123.51,96.37c3.14,2.01,5.23,5.54,5.23,9.55v20.91c0,10.11-8.19,18.3-18.3,18.3h-31.37c-4.01,0-7.53-2.08-9.55-5.23h40.92c7.22,0,13.07-5.86,13.07-13.07v-30.46Zm-3.48,2.09v26.63c0,6.04-4.73,10.98-10.68,11.31l-.64,.02h-40.08c-6.04,0-10.98-4.73-11.31-10.68l-.02-.64v-26.63l30.15,15.87c.76,.4,1.67,.4,2.43,0l30.15-15.87h0Zm-51.41-14.33h40.08c5.31,0,9.77,3.66,11,8.6l-31.04,16.33-31.04-16.33c1.17-4.73,5.32-8.29,10.34-8.58l.66-.02Z"/></g><text class="k" transform="translate(69.82 61.48)"><tspan x="0" y="0">14</tspan></text></g></g></svg>