<?xml version="1.0" encoding="UTF-8"?><svg id="b" xmlns="http://www.w3.org/2000/svg" xmlns:xlink="http://www.w3.org/1999/xlink" viewBox="0 0 164 180"><defs><style>.g{fill:url(#d);}.h{fill:#fff;}.i{filter:url(#e);}</style><linearGradient id="d" x1="-24.83" y1="164.81" x2="161.95" y2="34.02" gradientTransform="matrix(1, 0, 0, 1, 0, 0)" gradientUnits="userSpaceOnUse"><stop offset=".17" stop-color="#c42251"/><stop offset=".23" stop-color="#c92656"/><stop offset=".49" stop-color="#da386b"/><stop offset=".75" stop-color="#e54277"/><stop offset="1" stop-color="#e9467c"/></linearGradient><filter id="e" filterUnits="userSpaceOnUse"><feOffset dx="7" dy="7"/><feGaussianBlur result="f" stdDeviation="5"/><feFlood flood-color="#000" flood-opacity=".75"/><feComposite in2="f" operator="in"/><feComposite in="SourceGraphic"/></filter></defs><g id="c"><g><rect class="g" width="164" height="180"/><g class="i"><path class="h" d="M94.55,76.89c4.4,0,7.97,3.57,7.97,7.97v21.64c0,11.32-9.18,20.5-20.5,20.5s-20.5-9.18-20.5-20.5v-21.64c0-4.4,3.57-7.97,7.97-7.97h25.07Zm-34.73,0c-1.59,1.93-2.62,4.34-2.83,6.98l-.04,1v21.64c0,3.86,.87,7.51,2.43,10.77-1.5,.41-3.08,.62-4.71,.62-10.07,0-18.23-8.16-18.23-18.23v-14.8c0-4.18,3.22-7.61,7.32-7.95l.65-.03h15.41Zm44.39,0h15.38c4.4,0,7.97,3.57,7.97,7.97v14.81c0,10.06-8.16,18.22-18.22,18.22-1.62,0-3.2-.21-4.7-.61,1.37-2.86,2.21-6.02,2.4-9.34l.04-1.44v-21.64c0-3.03-1.08-5.81-2.87-7.98h0Zm-22.21-31.88c7.55,0,13.67,6.12,13.67,13.67s-6.12,13.67-13.67,13.67-13.67-6.12-13.67-13.67,6.12-13.67,13.67-13.67Zm29.61,4.55c6.29,0,11.39,5.1,11.39,11.39s-5.1,11.39-11.39,11.39-11.39-5.1-11.39-11.39,5.1-11.39,11.39-11.39Zm-59.23,0c6.29,0,11.39,5.1,11.39,11.39s-5.1,11.39-11.39,11.39-11.39-5.1-11.39-11.39,5.1-11.39,11.39-11.39Z"/></g></g></g></svg>