<?xml version="1.0" encoding="UTF-8"?><svg id="b" xmlns="http://www.w3.org/2000/svg" xmlns:xlink="http://www.w3.org/1999/xlink" viewBox="0 0 164 180"><defs><style>.g{fill:url(#d);}.h{fill:none;}.i{fill:#fff;}.j{fill:#cdcccc;}.k{opacity:.2;}.k,.l{fill:#010101;isolation:isolate;}.m{filter:url(#e);}.l{opacity:.1;}</style><linearGradient id="d" x1="174.82" y1="-6.12" x2="-22.49" y2="198.2" gradientTransform="matrix(1, 0, 0, 1, 0, 0)" gradientUnits="userSpaceOnUse"><stop offset=".17" stop-color="#6365a8"/><stop offset=".51" stop-color="#6464a7"/><stop offset=".63" stop-color="#6b62a5"/><stop offset=".72" stop-color="#7760a1"/><stop offset=".79" stop-color="#885c9b"/><stop offset=".85" stop-color="#9e5794"/><stop offset=".9" stop-color="#b9508b"/><stop offset=".95" stop-color="#d94981"/><stop offset=".97" stop-color="#e9467c"/></linearGradient><filter id="e" filterUnits="userSpaceOnUse"><feOffset dx="7" dy="7"/><feGaussianBlur result="f" stdDeviation="5"/><feFlood flood-color="#000" flood-opacity=".75"/><feComposite in2="f" operator="in"/><feComposite in="SourceGraphic"/></filter></defs><g id="c"><g><rect class="g" width="164" height="180"/><g class="m"><path class="j" d="M96.65,72.83h20.36c1.92,0,3.48,1.56,3.48,3.48h0v18.55c0,7.07-5.73,12.8-12.8,12.8h-.06c-7.07,0-12.8-5.73-12.8-12.8h0v-20.21c0-1.01,.82-1.82,1.82-1.82h0Z"/><circle class="j" cx="110.42" cy="60.92" r="8.25"/><circle class="i" cx="84.75" cy="57.25" r="11.92"/><path class="i" d="M100.64,72.83h-33.61c-1.9,.05-3.4,1.62-3.36,3.53v21.15c-.27,11.41,8.76,20.87,20.17,21.15,11.41-.28,20.43-9.75,20.17-21.15v-21.15c.04-1.9-1.46-3.48-3.36-3.53Z"/><path class="h" d="M38,38H126V126H38V38Z"/><path class="l" d="M85.67,72.83v29.64c0,1.36-.83,2.58-2.09,3.1-.4,.17-.83,.26-1.27,.26h-17.03c-.24-.61-.46-1.21-.64-1.83-.64-2.1-.97-4.29-.97-6.49v-21.16c-.04-1.9,1.46-3.47,3.35-3.52h18.65Z"/><path class="k" d="M83.83,72.83v31.48c0,.43-.09,.86-.26,1.26-.52,1.26-1.74,2.08-3.1,2.09h-14.34c-.31-.61-.6-1.21-.86-1.83s-.46-1.21-.64-1.83c-.64-2.1-.97-4.29-.97-6.49v-21.16c-.04-1.9,1.46-3.47,3.35-3.52h16.81Z"/><path class="k" d="M83.83,72.83v27.81c-.01,1.85-1.51,3.34-3.35,3.36h-15.84c-.64-2.1-.97-4.29-.97-6.49v-21.16c-.04-1.9,1.46-3.47,3.35-3.52h16.81Z"/><path class="k" d="M82,72.83v27.81c-.01,1.85-1.51,3.34-3.35,3.36h-14.01c-.64-2.1-.97-4.29-.97-6.49v-21.16c-.04-1.9,1.46-3.47,3.35-3.52h14.98Z"/><path class="l" d="M85.67,63.35v5.77c-.31,.02-.6,.04-.92,.04s-.6-.02-.92-.04c-.62-.04-1.23-.14-1.83-.29-3.71-.88-6.78-3.48-8.25-7-.25-.59-.45-1.21-.59-1.83h9.15c1.85,0,3.35,1.51,3.35,3.35Z"/><path class="k" d="M83.83,65.19v3.94c-.62-.04-1.23-.14-1.83-.29-3.71-.88-6.78-3.48-8.25-7h6.73c1.85,0,3.35,1.51,3.35,3.35Z"/><path class="k" d="M83.83,65.19v3.94c-.62-.04-1.23-.14-1.83-.29-3.71-.88-6.78-3.48-8.25-7h6.73c1.85,0,3.35,1.51,3.35,3.35Z"/><path class="k" d="M82,65.19v3.65c-3.71-.88-6.78-3.48-8.25-7h4.9c1.85,0,3.35,1.51,3.35,3.35Z"/><path class="i" d="M78.64,61.83H45.03c-1.86,0-3.36,1.5-3.36,3.36v33.61c0,1.86,1.5,3.36,3.36,3.36h33.61c1.86,0,3.36-1.5,3.36-3.36v-33.61c0-1.86-1.5-3.36-3.36-3.36Zm-7.96,12.79h-6.72v18.3h-4.28v-18.3h-6.69v-3.55h17.69v3.55Z"/></g></g></g></svg>